<svg xmlns="http://www.w3.org/2000/svg" viewBox="0 0 142.31 142.31"><defs><style>.cls-1{fill:#5c0d57;}</style></defs><g id="Calque_2" data-name="Calque 2"><g id="Calque_1-2" data-name="Calque 1"><path class="cls-1" d="M71.16,142.31a71.16,71.16,0,1,1,71.15-71.15A71.24,71.24,0,0,1,71.16,142.31Zm0-138.91a67.76,67.76,0,1,0,67.75,67.76A67.84,67.84,0,0,0,71.16,3.4Z"/><path class="cls-1" d="M73.35,93H69v4.83c0,1.84-.37,2.55-1.34,2.58s-1.39-.71-1.39-2.61V92.9c-2.16-.09-4.2-.16-6.24-.27a112.64,112.64,0,0,1-21-2.63,36,36,0,0,1-5.44-1.87,4.08,4.08,0,0,1-2.71-4.32c.09-1.75,0-3.52,0-5.28a3.21,3.21,0,0,1,1.87-3.07A38.18,38.18,0,0,1,39.25,73c3-.75,6.13-1.13,9.2-1.65a1.4,1.4,0,0,1,1.71,1.13c.13.83-.39,1.4-1.39,1.59-3.78.72-7.56,1.41-11.32,2.22a8.24,8.24,0,0,0-3.92,2,15.09,15.09,0,0,0,2.8,1.35c3.6.87,7.2,1.85,10.87,2.37a178.26,178.26,0,0,0,29.94,1.4,134.18,134.18,0,0,0,23.66-2.34,60.36,60.36,0,0,0,6.29-1.85,8.75,8.75,0,0,0,1.6-.95l0-.37a26.44,26.44,0,0,0-3.88-1.6c-3.32-.78-6.69-1.38-10-2-.25,0-.52-.07-.78-.14A1.27,1.27,0,0,1,93,72.67a1.24,1.24,0,0,1,1.47-1.17c1.88.25,3.77.44,5.61.87,2.67.62,5.31,1.39,7.94,2.2a6.66,6.66,0,0,1,2.12,1.26,3.29,3.29,0,0,1,1.32,2.86c-.07,1.8-.09,3.6,0,5.39a3.7,3.7,0,0,1-2.3,3.83A34.29,34.29,0,0,1,103.45,90a100.2,100.2,0,0,1-17.93,2.45c-3.08.19-6.17.33-9.43.5v1.5c0,1.47,0,2.93,0,4.39a1.44,1.44,0,0,1-1.36,1.55,1.42,1.42,0,0,1-1.36-1.54C73.34,96.91,73.35,95,73.35,93Zm35.33-11.32-.56.15c-2.35.69-4.67,1.54-7.06,2C92.41,85.59,83.62,86,74.81,86.21a174,174,0,0,1-24.37-1c-4.46-.54-8.88-1.51-13.3-2.37a26.24,26.24,0,0,1-3.49-1.19,21,21,0,0,1,0,2.26,1.48,1.48,0,0,0,1,1.72,39.15,39.15,0,0,0,4.77,1.68A112.1,112.1,0,0,0,64.51,90c7.2.1,14.41,0,21.6-.43a143.19,143.19,0,0,0,15.28-2,37.33,37.33,0,0,0,6.4-2.08,1.45,1.45,0,0,0,.85-1A23.76,23.76,0,0,0,108.68,81.64Z"/><path class="cls-1" d="M31,104.3h80l.09-.16-.86-.5L97.93,97c-.26-.14-.65-.25-.74-.47a2.85,2.85,0,0,1-.34-1.6,1.14,1.14,0,0,1,1.54-.71,5.23,5.23,0,0,1,1,.46l17.9,9.62a1.82,1.82,0,0,1,1.08,1.82c0,2.2,0,4.39,0,6.59a4.15,4.15,0,0,1,0,.79c-.16.76-.59,1.3-1.43,1.24a1.26,1.26,0,0,1-1.27-1.38c0-1.69,0-3.39,0-5.08v-1.21h-1.38q-43.12,0-86.24,0c-1,0-1.35.21-1.29,1.26.09,1.59,0,3.19,0,4.78,0,1.07-.48,1.64-1.31,1.66S24,114.21,24,113.09c0-2.4-.1-4.79,0-7.18a2.08,2.08,0,0,1,.94-1.47c6.11-3.36,12.25-6.65,18.39-9.94,1-.52,1.79-.35,2.17.39s.08,1.49-.88,2q-6.23,3.38-12.45,6.72C31.84,103.78,31.55,104,31,104.3Z"/><path class="cls-1" d="M85.63,25.48a150.55,150.55,0,0,1-28.95,0l2.39,2.87c.44.54.91,1.06,1.31,1.63a5.39,5.39,0,0,1-.84,7.23A17,17,0,0,0,55,43.66a17.19,17.19,0,0,0-.9,6.67A9.68,9.68,0,0,1,54,52.12a1.26,1.26,0,0,1-1.4,1.15A1.29,1.29,0,0,1,51.39,52c-.47-6.48,1.25-12.15,6.17-16.64,1.44-1.3,1.51-2.68.26-4.19q-2.94-3.52-5.9-7c-.91-1.08-.74-2.32.6-2.82a18.35,18.35,0,0,1,4.14-1,113.45,113.45,0,0,1,18.7-.65c4.21.18,8.4.65,12.59,1a5.34,5.34,0,0,1,1.89.59c1.3.64,1.47,1.73.54,2.84Q87.49,27.55,84.6,31c-1.43,1.72-1.35,3,.3,4.48a18.79,18.79,0,0,1,4.53,6.25c.45,1,.26,1.8-.51,2.15s-1.52,0-2-1a16.46,16.46,0,0,0-4.09-5.58,5.45,5.45,0,0,1-.55-7.85C83.36,28.18,84.43,26.92,85.63,25.48ZM59.51,22.82c3.16.83,21,.79,23.36,0A136,136,0,0,0,59.51,22.82Z"/><path class="cls-1" d="M71.12,79.68c-2.54-.14-5.13-.06-7.64-.44a14.29,14.29,0,0,1-12.1-14c0-1.1,0-2.19,0-3.29s.52-1.55,1.29-1.59A1.44,1.44,0,0,1,54.1,62c0,1.23,0,2.46,0,3.68a11.58,11.58,0,0,0,10.59,11c4.27.21,8.57.2,12.85,0A11.61,11.61,0,0,0,88.23,64.87c0-1,0-1.93,0-2.89a1.21,1.21,0,0,1,1.28-1.25,1.23,1.23,0,0,1,1.36,1.18c.43,5.42-.63,10.34-5,14a15.28,15.28,0,0,1-10.2,3.6H71.13Z"/><path class="cls-1" d="M101.91,52.83c-1.06-.42-1.85-.73-2.65-1-1-.37-1.38-1-1.15-1.79a1.41,1.41,0,0,1,2-.79,14.48,14.48,0,0,1,3.15,1.43c1.9,1.31,1.91,3.43-.14,4.47a25,25,0,0,1-6.05,2.12,102.36,102.36,0,0,1-17.89,1.88,1.4,1.4,0,0,1-1.64-1.32c0-.79.62-1.33,1.62-1.4,3.71-.28,7.43-.39,11.11-.87,3.34-.43,6.63-1.26,9.93-2A10.28,10.28,0,0,0,101.91,52.83Z"/><path class="cls-1" d="M95.83,45.32l-2.64-.8c-1.07-.31-1.54-.91-1.34-1.74s.92-1.25,2-.92a19.37,19.37,0,0,1,3.88,1.5c1.87,1.07,1.91,3.23,0,4.18a29.61,29.61,0,0,1-5.82,1.91c-.76.2-1,.47-.94,1.18a11.92,11.92,0,0,1,0,1.69,1.34,1.34,0,0,1-2.67,0c0-.69,0-1.38,0-2.2-1.11.09-2.08.18-3.06.25q-2.88.23-5.77.42c-1.12.07-1.76-.36-1.85-1.2s.52-1.4,1.62-1.5c3.24-.31,6.49-.52,9.71-.92,1.91-.23,3.77-.74,5.65-1.15a9.73,9.73,0,0,0,1.27-.48Z"/><path class="cls-1" d="M42,53.05a24.33,24.33,0,0,0,3.45,1.12c3.92.67,7.87,1.19,11.79,1.84a2.14,2.14,0,0,1,1.38.9c.18.32-.08,1-.33,1.41a1.36,1.36,0,0,1-1.06.37,64,64,0,0,1-14.48-2.45A9.45,9.45,0,0,1,40.29,55c-1.74-1.23-1.77-3.28.1-4.31a39.14,39.14,0,0,1,5.44-2.08A5.77,5.77,0,0,1,47,48.38,1.34,1.34,0,0,1,47.5,51c-1,.27-1.94.44-2.89.73s-1.72.64-2.58,1Z"/><path class="cls-1" d="M71.1,56.57a6.91,6.91,0,0,1,.79,0A1.35,1.35,0,0,1,72,59.27a8.13,8.13,0,0,1-1.48,0,1.37,1.37,0,1,1,0-2.72Z"/></g></g></svg>