<?xml version="1.0" encoding="utf-8"?>
<!-- Generator: Adobe Illustrator 24.1.0, SVG Export Plug-In . SVG Version: 6.00 Build 0)  -->
<svg version="1.1" id="Calque_1" focusable="false" xmlns="http://www.w3.org/2000/svg" xmlns:xlink="http://www.w3.org/1999/xlink"
	 x="0px" y="0px" viewBox="0 0 512 512" style="enable-background:new 0 0 512 512;" xml:space="preserve">
<style type="text/css">
	.st0{fill:#986895;}
</style>
<path class="st0" d="M256,56c110.5,0,200,89.5,200,200c0,110.5-89.5,200-200,200c-110.5,0-200-89.5-200-200
	C56,145.5,145.5,56,256,56 M256,8C119,8,8,119,8,256s111,248,248,248s248-111,248-248S393,8,256,8z M256,176c-44.2,0-80,35.8-80,80
	s35.8,80,80,80s80-35.8,80-80S300.2,176,256,176z"/>
</svg>
