<svg xmlns="http://www.w3.org/2000/svg" viewBox="0 0 101.28 88.94"><defs><style>.cls-1{fill:#1d1d1b;}</style></defs><g id="Calque_2" data-name="Calque 2"><g id="Calque_1-2" data-name="Calque 1"><path class="cls-1" d="M90.77,88.94H10.51A10.78,10.78,0,0,1,0,78.43v-29H39.54V59.9a1.84,1.84,0,0,0,1.84,1.84H59.9a1.84,1.84,0,0,0,1.84-1.84V49.39h39.54v29A10.78,10.78,0,0,1,90.77,88.94ZM2.5,51.89V78.43a8.22,8.22,0,0,0,8,8H90.77a8.22,8.22,0,0,0,8-8V51.89H64.24v8a4.34,4.34,0,0,1-4.34,4.34H41.38A4.35,4.35,0,0,1,37,59.9v-8Zm98.78-6.17H0V29A10.78,10.78,0,0,1,10.51,18.52H24.7v-8A10.78,10.78,0,0,1,35.21,0H66.08A10.78,10.78,0,0,1,76.59,10.51v8H90.77A10.78,10.78,0,0,1,101.28,29ZM2.5,43.22H98.78V29a8.22,8.22,0,0,0-8-8H74.09V10.51a8.22,8.22,0,0,0-8-8H35.21a8.22,8.22,0,0,0-8,8V21H10.51a8.22,8.22,0,0,0-8,8ZM64.24,21H37V12.35h27.2Zm-24.7-2.5h22.2V14.85H39.54Z"/></g></g></svg>