<svg xmlns="http://www.w3.org/2000/svg" viewBox="0 0 112.46 98.78"><defs><style>.cls-1{fill:none;stroke:#231f20;stroke-miterlimit:10;stroke-width:3px;}</style></defs><g id="Calque_2" data-name="Calque 2"><g id="Calque_1-2" data-name="Calque 1"><path class="cls-1" d="M69.92,66.49a3.44,3.44,0,0,1-3.43,3.43H46a3.43,3.43,0,0,1-3.42-3.43V56.23H1.5V87A10.52,10.52,0,0,0,11.76,97.28H100.7A10.52,10.52,0,0,0,111,87V56.23h-41ZM100.7,22H83.6V11.76A10.52,10.52,0,0,0,73.34,1.5H39.13A10.52,10.52,0,0,0,28.87,11.76V22H11.76A10.52,10.52,0,0,0,1.5,32.29v17.1H111V32.29A10.52,10.52,0,0,0,100.7,22ZM69.92,22H42.55V15.18H69.92Z"/></g></g></svg>