<svg xmlns="http://www.w3.org/2000/svg" viewBox="0 0 48.69 42.7"><defs><style>.cls-1{fill:#986895;}</style></defs><g id="Calque_2" data-name="Calque 2"><g id="Calque_1-2" data-name="Calque 1"><path class="cls-1" d="M43.78,42.7H4.9A5,5,0,0,1,0,37.8V23.93H18.78v4.9a1.08,1.08,0,0,0,1.08,1.08h9a1.09,1.09,0,0,0,1.08-1.08v-4.9H48.69V37.8A5,5,0,0,1,43.78,42.7ZM.83,24.76v13A4.18,4.18,0,0,0,4.9,41.87H43.78a4.17,4.17,0,0,0,4.07-4.07v-13H30.74v4.07a1.92,1.92,0,0,1-1.91,1.91h-9a1.92,1.92,0,0,1-1.92-1.91V24.76Zm47.86-3H0V13.88A5,5,0,0,1,4.9,9H12V4.9A5,5,0,0,1,16.87,0h15a5,5,0,0,1,4.9,4.9V9h7.06a5,5,0,0,1,4.91,4.91ZM.83,20.93h47v-7a4.17,4.17,0,0,0-4.07-4.07H35.89V4.9A4.18,4.18,0,0,0,31.82.83H16.87A4.18,4.18,0,0,0,12.8,4.9V9.81H4.9A4.18,4.18,0,0,0,.83,13.88ZM30.74,9.81H17.94V6h12.8ZM18.78,9H29.91V6.82H18.78Z"/></g></g></svg>