<svg xmlns="http://www.w3.org/2000/svg" viewBox="0 0 149.05 90.64"><defs><style>.cls-1{fill:#1d1d1b;}</style></defs><g id="Calque_2" data-name="Calque 2"><g id="Calque_1-2" data-name="Calque 1"><path class="cls-1" d="M74.52,90.64c-29.43,0-45.31-8.3-45.31-16.11v-.18l3.46-27.67,34.8,10.69a23.85,23.85,0,0,0,14.08,0l34.81-10.69,3.47,27.85C119.84,82.34,104,90.64,74.52,90.64Zm-42.31-16c.16,6.17,17.49,13,42.31,13s42.16-6.85,42.31-13l-3-24L82.45,60.24a26.92,26.92,0,0,1-15.85,0L35.21,50.6Zm-9.71,16H9.7a5.15,5.15,0,0,1-5-6.27l5.63-25.3a8.49,8.49,0,0,1,.79-13.55,19.47,19.47,0,0,1,3.09-9L5.09,33.7a6.87,6.87,0,0,1,0-13.27L68.74.87A19.64,19.64,0,0,1,80.3.87L144,20.43a6.87,6.87,0,0,1,0,13.27L80.3,53.26a19.6,19.6,0,0,1-11.56,0L24.84,39.77a9.23,9.23,0,0,0-3.43,6,8.65,8.65,0,0,1,3.5,6.87,8.52,8.52,0,0,1-3,6.45l5.62,25.3a5.15,5.15,0,0,1-5,6.27ZM74.52,3a16.46,16.46,0,0,0-4.89.73L6,23.3a3.87,3.87,0,0,0,0,7.53l13.22,4.06-1.4,1.73A16.56,16.56,0,0,0,14,46.43l0,.84-.72.41a5.54,5.54,0,0,0-.46,9.57l.81.58L7.6,85a2.15,2.15,0,0,0,2.1,2.62H22.5a2.15,2.15,0,0,0,1.68-.81A2.11,2.11,0,0,0,24.6,85l-6-27.19.82-.58a5.52,5.52,0,0,0-.33-9.48l-.76-.46,0-.89a12.3,12.3,0,0,1,5.37-9.54l.6-.41L69.62,50.39a16.64,16.64,0,0,0,9.8,0l63.65-19.56a3.87,3.87,0,0,0,0-7.53L79.42,3.74A16.57,16.57,0,0,0,74.52,3Z"/></g></g></svg>