<svg xmlns="http://www.w3.org/2000/svg" viewBox="0 0 58.96 35.78"><defs><style>.cls-1{fill:#986895;}</style></defs><g id="Calque_2" data-name="Calque 2"><g id="Calque_1-2" data-name="Calque 1"><path class="cls-1" d="M29.48,35.78c-8.79,0-17.89-2.35-17.89-6.29L13,18.56l13.71,4.21a9.67,9.67,0,0,0,5.64,0L46,18.55l1.36,10.87C47.37,33.43,38.27,35.78,29.48,35.78ZM13.8,19.86l-1.21,9.69c0,2.49,6.79,5.23,16.89,5.23S46.37,32,46.37,29.49l-1.21-9.63L32.6,23.72a10.59,10.59,0,0,1-6.24,0Zm-5,15.92H3.75a1.95,1.95,0,0,1-1.9-2.37L4.1,23.31A3.27,3.27,0,0,1,4.4,18a7.54,7.54,0,0,1,1.28-3.7L2,13.19A2.64,2.64,0,0,1,2,8.1L27.22.34a7.77,7.77,0,0,1,4.53,0L57,8.1a2.64,2.64,0,0,1,0,5.09L31.75,21a7.63,7.63,0,0,1-4.53,0L9.74,15.58A3.79,3.79,0,0,0,8.3,18.11a3.27,3.27,0,0,1,.2,5.2l2.24,10.1a1.95,1.95,0,0,1-1.9,2.37ZM29.48,1a6.58,6.58,0,0,0-2,.3L2.25,9.06a1.63,1.63,0,0,0,0,3.17L7.36,13.8l-.47.58a6.7,6.7,0,0,0-1.51,3.95v.28l-.24.14a2.35,2.35,0,0,0-1.23,2,2.37,2.37,0,0,0,1,1.92l.27.19L2.83,33.63a1,1,0,0,0,.18.8,1,1,0,0,0,.74.35H8.84a1,1,0,0,0,.74-.35.93.93,0,0,0,.18-.8L7.38,22.9l.27-.19a2.3,2.3,0,0,0-.14-3.93l-.25-.15,0-.3a4.73,4.73,0,0,1,2.09-3.71l.2-.14L27.51,20a6.74,6.74,0,0,0,3.94,0l25.27-7.77a1.63,1.63,0,0,0,0-3.17L31.45,1.3A6.53,6.53,0,0,0,29.48,1Z"/></g></g></svg>