<svg xmlns="http://www.w3.org/2000/svg" viewBox="0 0 149.05 90.63"><defs><style>.cls-1{fill:none;stroke:#010101;stroke-miterlimit:10;stroke-width:3px;}</style></defs><g id="Calque_2" data-name="Calque 2"><g id="Calque_1-2" data-name="Calque 1"><path class="cls-1" d="M143.52,21.86,79.86,2.3a18.17,18.17,0,0,0-10.68,0L5.53,21.86a5.37,5.37,0,0,0,0,10.4l11.1,3.41a17.89,17.89,0,0,0-4.08,10.7A7,7,0,0,0,12,58.47L6.14,84.69A3.65,3.65,0,0,0,9.7,89.13H22.5a3.65,3.65,0,0,0,3.57-4.44L20.24,58.47a7,7,0,0,0-.41-12,10.79,10.79,0,0,1,4.72-8.38L69.18,51.82a18.35,18.35,0,0,0,10.68,0l63.66-19.56a5.37,5.37,0,0,0,0-10.4ZM82,58.8a25.55,25.55,0,0,1-15,0L33.94,48.63,30.71,74.52c0,8.07,19.61,14.61,43.81,14.61s43.82-6.54,43.82-14.61L115.1,48.63Z"/></g></g></svg>