<svg xmlns="http://www.w3.org/2000/svg" xmlns:xlink="http://www.w3.org/1999/xlink" viewBox="0 0 142.31 142.31"><defs><style>.cls-1{fill:none;}.cls-2{fill:#5c0d57;}.cls-3{clip-path:url(#clip-path);}</style><clipPath id="clip-path"><rect class="cls-1" x="75.64" y="63.82" width="32.57" height="32.57" transform="translate(-24.79 44.82) rotate(-24.25)"/></clipPath></defs><g id="Calque_2" data-name="Calque 2"><g id="Calque_1-2" data-name="Calque 1"><path class="cls-2" d="M71.16,142.31a71.16,71.16,0,1,1,71.15-71.15A71.24,71.24,0,0,1,71.16,142.31Zm0-138.91a67.76,67.76,0,1,0,67.75,67.76A67.84,67.84,0,0,0,71.16,3.4Z"/><path class="cls-2" d="M102.59,60.07s-1.4-2.06.84-5.49c1.28-2,4.23-5.49,4.23-5.49s2.53-2.82,4.64,1.68c2.73,5.82,15.21,34.07,15.21,34.07s3.94,6.48-2.11,6.48a20.19,20.19,0,0,1-9.91-2.39Z"/><path class="cls-2" d="M68.69,73.41s-.59-2.48-4.79-2.86c-2.4-.22-7.16-.07-7.16-.07s-3.92.27-1.94,4.93c2.55,6,15.5,34.61,15.5,34.61s2.22,7.44,6.44,2.45a23.08,23.08,0,0,0,5.07-9.73Z"/><g class="cls-3"><polygon class="cls-2" points="88.61 108.41 85.88 109.64 59.49 70.27 62.23 69.03 88.61 108.41"/><polygon class="cls-2" points="93.06 106.41 90.33 107.64 63.94 68.26 66.68 67.03 93.06 106.41"/><polygon class="cls-2" points="97.51 104.4 94.78 105.64 68.39 66.26 71.13 65.02 97.51 104.4"/><polygon class="cls-2" points="101.96 102.4 99.23 103.63 72.84 64.25 75.58 63.02 101.96 102.4"/><polygon class="cls-2" points="106.41 100.39 103.68 101.63 77.29 62.25 80.03 61.02 106.41 100.39"/><polygon class="cls-2" points="110.86 98.39 108.13 99.62 81.74 60.24 84.48 59.01 110.86 98.39"/><polygon class="cls-2" points="115.31 96.38 112.58 97.62 86.19 58.24 88.93 57.01 115.31 96.38"/><polygon class="cls-2" points="119.76 94.38 117.03 95.61 90.64 56.24 93.38 55 119.76 94.38"/><polygon class="cls-2" points="124.21 92.38 121.47 93.61 95.09 54.23 97.83 53 124.21 92.38"/></g><path class="cls-2" d="M100.24,14.45c-1.85-1.53-6.24,1-10.46,5.35C86,23.71,76.12,35,76.12,35l-63,65.65C16,104.27,78.43,39.23,81.81,36.42s8.06-6.29,13.69-11.64S102.16,16.05,100.24,14.45ZM89.93,27.07c-3.86,3.85-7.5,6.47-8.13,5.84s2-4.27,5.84-8.13,7.5-6.47,8.13-5.84S93.79,23.21,89.93,27.07Z"/><path class="cls-2" d="M95.39,62.15a1.39,1.39,0,0,1-1.12-.56c-2.7-3.63-3.72-6.31-3.2-8.44S93.55,50,95,49.32s1.63-.88,1.58-1.14c-.26-1.2-1.3-2.11-2.73-3.36a20.15,20.15,0,0,1-7-10.19c-2.35-7.78-4.38-14.51-7.13-14.9a7.19,7.19,0,0,0-5.39,1.18C72.94,22.07,72.14,24,72,26.72a1.4,1.4,0,0,1-2.79-.17c.21-3.51,1.36-6.14,3.4-7.81A9.84,9.84,0,0,1,80.13,17c4.52.65,6.47,7.11,9.42,16.87a17.3,17.3,0,0,0,6.12,8.89c1.63,1.43,3.17,2.77,3.63,4.88.53,2.47-1.65,3.54-3.09,4.24S94,53,93.79,53.81s.1,2.58,2.72,6.1a1.4,1.4,0,0,1-1.12,2.24Z"/></g></g></svg>