<svg xmlns="http://www.w3.org/2000/svg" xmlns:xlink="http://www.w3.org/1999/xlink" viewBox="0 0 142.31 142.31"><defs><style>.cls-1{fill:none;}.cls-2{fill:#5c0d57;}.cls-3{clip-path:url(#clip-path);}</style><clipPath id="clip-path"><ellipse class="cls-1" cx="81.78" cy="45.53" rx="28.06" ry="20.78" transform="translate(2.68 95.58) rotate(-61.43)"/></clipPath></defs><g id="Calque_2" data-name="Calque 2"><g id="Calque_1-2" data-name="Calque 1"><path class="cls-2" d="M71.16,142.31a71.16,71.16,0,1,1,71.15-71.15A71.24,71.24,0,0,1,71.16,142.31Zm0-138.91a67.76,67.76,0,1,0,67.75,67.76A67.84,67.84,0,0,0,71.16,3.4Z"/><path class="cls-2" d="M90.65,103.69a14,14,0,0,1,9.63-4.43A10.84,10.84,0,0,0,92,92.59,13.79,13.79,0,0,1,79.45,104.4,10.83,10.83,0,0,0,87,113.6,14,14,0,0,1,90.65,103.69Z"/><path class="cls-2" d="M89.66,92.46a10.82,10.82,0,0,0-10.2,9.61,11.65,11.65,0,0,0,7.29-3.63A11.49,11.49,0,0,0,89.66,92.46Z"/><path class="cls-2" d="M92.35,105.26a11.75,11.75,0,0,0-3,8.79c.3,0,.6,0,.91,0a10.76,10.76,0,0,0,10.68-12.55A11.69,11.69,0,0,0,92.35,105.26Z"/><path class="cls-2" d="M74.87,78.81c9.58-5.52,20.27-8.68,27.81-22.52s7.36-30.85-6-38.12S69,20,61.41,33.81,57,58.35,57.57,69.39a84.37,84.37,0,0,1-.83,18.3L53,94.49l-1.48-.8L38.29,118l-1.11-.6-2.56,4.71,4.19,2.28,4.2,2.29L45.58,122l-1.12-.61L57.73,97.05l-1.49-.81L60,89.44A84.16,84.16,0,0,1,74.87,78.81ZM63.54,35.59C71,22,85.13,15.4,95.2,20.89s12.24,21,4.83,34.58S78.44,75.66,68.36,70.17,56.12,49.21,63.54,35.59Zm-4,50.88,1.45-18c6.24,7.09,13.36,7.27,13.36,7.27Z"/><g class="cls-3"><rect class="cls-2" x="25.83" y="39.19" width="80.1" height="1" transform="translate(-0.5 78.55) rotate(-61.41)"/><rect class="cls-2" x="23.77" y="38.07" width="80.1" height="1" transform="translate(-0.59 76.14) rotate(-61.41)"/><rect class="cls-2" x="31.64" y="42.36" width="80.1" height="1" transform="translate(-0.23 85.33) rotate(-61.43)"/><rect class="cls-2" x="34.12" y="43.71" width="80.1" height="1" transform="translate(-0.12 88.21) rotate(-61.43)"/><rect class="cls-2" x="40.55" y="47.2" width="80.1" height="1" transform="translate(0.16 95.68) rotate(-61.43)"/><rect class="cls-2" x="46.73" y="50.57" width="80.1" height="1" transform="translate(0.43 102.87) rotate(-61.43)"/><rect class="cls-2" x="49.2" y="51.92" width="80.1" height="1" transform="translate(0.54 105.74) rotate(-61.43)"/><rect class="cls-2" x="55.13" y="55.15" width="80.1" height="1" transform="translate(0.8 112.64) rotate(-61.43)"/><rect class="cls-2" x="57.73" y="56.56" width="80.1" height="1" transform="translate(0.91 115.66) rotate(-61.43)"/><rect class="cls-2" x="91.9" y="-5.46" width="1" height="64.2" transform="translate(24.81 95.04) rotate(-61.43)"/><rect class="cls-2" x="90.48" y="-2.86" width="1" height="64.2" transform="translate(21.79 95.16) rotate(-61.43)"/><rect class="cls-2" x="88.6" y="0.6" width="1" height="64.2" transform="translate(17.77 95.31) rotate(-61.43)"/><rect class="cls-2" x="87.18" y="3.2" width="1" height="64.2" transform="translate(14.75 95.42) rotate(-61.43)"/><rect class="cls-2" x="85.77" y="5.79" width="1" height="64.2" transform="translate(11.73 95.53) rotate(-61.43)"/><rect class="cls-2" x="83.68" y="9.63" width="1" height="64.2" transform="translate(7.28 95.7) rotate(-61.43)"/><rect class="cls-2" x="82.4" y="11.97" width="1" height="64.2" transform="translate(4.55 95.8) rotate(-61.43)"/><rect class="cls-2" x="79.04" y="18.16" width="1" height="64.2" transform="translate(-2.64 96.07) rotate(-61.43)"/><rect class="cls-2" x="77.69" y="20.63" width="1" height="64.2" transform="translate(-5.51 96.18) rotate(-61.43)"/><rect class="cls-2" x="75.6" y="24.46" width="1" height="64.2" transform="matrix(0.48, -0.88, 0.88, 0.48, -9.96, 96.35)"/><rect class="cls-2" x="74.26" y="26.93" width="1" height="64.2" transform="matrix(0.48, -0.88, 0.88, 0.48, -12.84, 96.45)"/><rect class="cls-2" x="72.91" y="29.41" width="1" height="64.2" transform="translate(-15.71 96.56) rotate(-61.43)"/><rect class="cls-2" x="71.09" y="32.75" width="1" height="64.2" transform="translate(-19.59 96.71) rotate(-61.43)"/><rect class="cls-2" x="69.27" y="36.08" width="1" height="64.2" transform="translate(-23.47 96.85) rotate(-61.43)"/></g></g></g></svg>