<svg xmlns="http://www.w3.org/2000/svg" viewBox="0 0 100.14 100.15"><defs><style>.cls-1{fill:none;stroke:#231f20;stroke-miterlimit:10;stroke-width:3px;}</style></defs><g id="Calque_2" data-name="Calque 2"><g id="Calque_1-2" data-name="Calque 1"><path class="cls-1" d="M96.59,76.69,74.48,54.58A14,14,0,0,0,58.36,52L38.23,31.83V20.11L14.06,2,2,14.06,20.11,38.23H31.83L52,58.36a14,14,0,0,0,2.62,16.12L76.69,96.59a7,7,0,0,0,10,0l10-10a7.07,7.07,0,0,0,0-10Zm-32-32.23a19.9,19.9,0,0,1,14.15,5.85L82.41,54A26.89,26.89,0,0,0,97.83,22.6a2.25,2.25,0,0,0-3.79-1L80,35.61,67.17,33.47,65,20.65l14-14A2.29,2.29,0,0,0,78,2.79,27.19,27.19,0,0,0,52.22,10a26.77,26.77,0,0,0-7.78,19.56L59.94,45a20.53,20.53,0,0,1,4.66-.55ZM45,59.94,34.28,49.24,5.51,78A12.08,12.08,0,0,0,22.6,95.11L45.93,71.78A20.28,20.28,0,0,1,45,59.94ZM14.06,91.09a4.53,4.53,0,1,1,4.53-4.53A4.55,4.55,0,0,1,14.06,91.09Z"/></g></g></svg>