<svg xmlns="http://www.w3.org/2000/svg" viewBox="0 0 43.94 43.94"><defs><style>.cls-1{fill:#986895;}</style></defs><g id="Calque_2" data-name="Calque 2"><g id="Calque_1-2" data-name="Calque 1"><path class="cls-1" d="M36,43.94a3.56,3.56,0,0,1-2.53-1l-9.81-9.81a6.68,6.68,0,0,1-1.38-7.38l-8.59-8.58H8.41L0,5.91,5.91,0,17.12,8.41v5.24l8.58,8.59a6.65,6.65,0,0,1,7.38,1.38l9.81,9.82a3.57,3.57,0,0,1,0,5l-4.41,4.41a3.49,3.49,0,0,1-2.51,1ZM8.85,16.23H14l9.28,9.29-.13.28a5.79,5.79,0,0,0,1.08,6.65l9.81,9.82a2.66,2.66,0,0,0,1.9.79h0a2.62,2.62,0,0,0,1.89-.79l4.42-4.42a2.69,2.69,0,0,0,0-3.79l-9.82-9.81a5.77,5.77,0,0,0-6.65-1.09l-.28.14L16.23,14V8.85L6,1.17,1.17,6ZM5.94,43.94A5.81,5.81,0,0,1,1.84,34L14.92,20.94l5.24,5.24-.05.23a8.47,8.47,0,0,0,.4,5l.1.27L10.05,42.24A5.8,5.8,0,0,1,5.94,43.94Zm9-21.75L2.46,34.66a4.92,4.92,0,0,0,0,7,4.93,4.93,0,0,0,7,0L19.58,31.46a9.45,9.45,0,0,1-.39-5ZM6,40.58A2.45,2.45,0,1,1,8.4,38.13,2.46,2.46,0,0,1,6,40.58Zm0-4a1.57,1.57,0,1,0,1.57,1.57A1.57,1.57,0,0,0,6,36.56ZM36.19,24.19l-1.84-1.84a8.45,8.45,0,0,0-7.94-2.24l-.24.06L19,13v-.18a12.3,12.3,0,0,1,3.58-9A12.44,12.44,0,0,1,34.44.51a1.49,1.49,0,0,1,1.06,1A1.42,1.42,0,0,1,35.12,3L29.05,9l.86,5.16,5.15.86L41.14,9a1.44,1.44,0,0,1,1.41-.37,1.4,1.4,0,0,1,1,1,12.44,12.44,0,0,1-3.29,11.88,12.27,12.27,0,0,1-3.81,2.56ZM28.38,19A9.26,9.26,0,0,1,35,21.73l1.41,1.41a11.36,11.36,0,0,0,3.27-2.26,11.56,11.56,0,0,0,3.06-11,.56.56,0,0,0-.39-.4.58.58,0,0,0-.56.15L35.37,16l-6.23-1-1-6.23,6.4-6.4a.52.52,0,0,0,.14-.54.57.57,0,0,0-.41-.41,11.58,11.58,0,0,0-11,3.06,11.45,11.45,0,0,0-3.33,8.19l6.58,6.58A9.88,9.88,0,0,1,28.38,19Z"/></g></g></svg>